<svg version="1.1" id="Layer_1" xmlns="http://www.w3.org/2000/svg" x="0" y="0" viewBox="0 0 512 512" style="enable-background:new 0 0 512 512" xml:space="preserve"><style>.st1{fill:#edf3fc}.st2{fill:#330d84}.st3{fill:#ffbe1b}.st4{fill:#0061f3}.st6{fill:#fff}.st7{fill:#5932ae}.st8{fill:#1c46c4}</style><path class="st1" d="M255.999 40.928c-118.778 0-215.071 96.294-215.071 215.074 0 118.776 96.292 215.068 215.071 215.068S471.07 374.778 471.07 256.002c0-118.78-96.293-215.074-215.071-215.074z"/><path class="st1" d="M255.999 1C115.391 1 1 115.392 1 256.002 1 396.609 115.391 511 255.999 511S511 396.609 511 256.002C511 115.392 396.607 1 255.999 1zm0 501.831c-136.103 0-246.83-110.727-246.83-246.829 0-136.104 110.727-246.834 246.83-246.834 136.102 0 246.832 110.729 246.832 246.834 0 136.102-110.73 246.829-246.832 246.829z"/><path class="st2" d="m420.912 180.856 1.424.358-1.424.36a23.321 23.321 0 0 0-16.953 16.945l-.354 1.423-.356-1.423a23.309 23.309 0 0 0-16.952-16.945l-1.419-.36 1.419-.358a23.314 23.314 0 0 0 16.952-16.949l.356-1.424.354 1.424a23.323 23.323 0 0 0 16.953 16.949z"/><path class="st3" d="m127.885 174.079 2.073.52-2.073.524a33.922 33.922 0 0 0-24.661 24.652l-.516 2.071-.519-2.071a33.897 33.897 0 0 0-24.664-24.652l-2.062-.524 2.062-.52a33.912 33.912 0 0 0 24.664-24.66l.519-2.069.516 2.069a33.935 33.935 0 0 0 24.661 24.66z"/><path class="st4" d="M377.777 199.202 268.41 105.018a17.419 17.419 0 0 0-22.736 0l-109.367 94.185c-5.304 3.368-8.826 9.29-8.826 16.035v133.32c0 10.492 8.501 18.994 18.991 18.994h221.144c10.488 0 18.99-8.502 18.99-18.994v-133.32c-.002-6.745-3.525-12.667-8.829-16.036z"/><path d="M377.777 199.202 268.41 105.018a17.419 17.419 0 0 0-22.736 0l-109.367 94.185c-5.304 3.368-8.826 9.29-8.826 16.035v133.32c0 10.492 8.501 18.994 18.991 18.994h221.144c10.488 0 18.99-8.502 18.99-18.994v-133.32c-.002-6.745-3.525-12.667-8.829-16.036z" style="fill:#8c7bfd"/><path class="st3" d="M245.674 273.216c6.534-5.628 16.203-5.628 22.736 0l14.113 11.374L349.397 227v-79.425c0-10.483-8.501-18.988-18.99-18.988H180.084c-10.49 0-18.991 8.505-18.991 18.988v76.33l70.467 60.685 14.114-11.374z"/><path class="st6" d="M321.998 238.283H190.002a5 5 0 1 1 0-10h131.996a5 5 0 1 1 0 10zM197.76 255.481l11.612 10h95.34l11.612-10z"/><path class="st2" d="m265.88 166.118.079-.351a4.68 4.68 0 0 1 4.568-3.653c2.976 0 5.197 2.74 4.58 5.652l-4.284 20.21c-.337 1.635-.506 2.717-.506 3.246 0 .553.139.986.417 1.298.275.313.607.469.992.469 1.299 0 2.976-.847 5.031-2.543 2.056-1.695 3.849-4.003 5.375-6.926 1.525-2.92 2.291-6.113 2.291-9.577 0-2.884-.547-5.602-1.642-8.151a18.977 18.977 0 0 0-4.741-6.637c-2.07-1.876-4.625-3.342-7.666-4.4-3.042-1.06-6.487-1.587-10.335-1.587-3.92 0-7.514.511-10.786 1.533-3.269 1.022-6.143 2.489-8.619 4.4-2.478 1.912-4.546 4.274-6.205 7.089-1.467 2.453-2.587 5.17-3.355 8.152a36.353 36.353 0 0 0-1.153 9.126c0 4.136.822 7.917 2.469 11.344 1.647 3.426 4.04 6.3 7.178 8.62 3.139 2.321 6.932 3.968 11.381 4.943 4.448.973 9.474 1.171 15.078.595 4.448-.529 8.217-1.54 11.307-3.03a22.196 22.196 0 0 0 6.935-5.198 3.288 3.288 0 0 1 2.448-1.079c2.853 0 4.389 3.351 2.53 5.517-.406.471-.83.929-1.271 1.373-2.009 2.021-4.359 3.721-7.053 5.104s-5.711 2.435-9.053 3.157c-3.343.721-6.986 1.082-10.929 1.082-5.917 0-11.244-.776-15.981-2.326-4.737-1.552-8.724-3.788-11.958-6.709a28.486 28.486 0 0 1-7.341-10.461c-1.657-4.053-2.489-8.531-2.489-13.438 0-5.122.854-9.907 2.561-14.356 1.707-4.448 4.167-8.315 7.375-11.597 3.211-3.283 7.131-5.85 11.76-7.701 4.629-1.852 9.733-2.777 15.312-2.777 4.57 0 8.76.667 12.572 2.001 3.811 1.335 7.075 3.253 9.793 5.754a25.063 25.063 0 0 1 6.224 8.891c1.43 3.428 2.145 7.209 2.145 11.345 0 3.223-.577 6.379-1.732 9.469a26.821 26.821 0 0 1-4.958 8.331 24.09 24.09 0 0 1-7.594 5.844c-2.91 1.431-6.047 2.146-9.414 2.146-1.948 0-3.464-.33-4.546-.992-1.081-.66-1.802-1.712-2.164-3.155-2.092 2.069-4.496 3.373-7.215 3.915-2.716.539-5.35.288-7.899-.76-2.549-1.045-4.61-2.806-6.185-5.283-1.576-2.477-2.363-5.531-2.363-9.162 0-3.775.811-7.49 2.435-11.145 1.622-3.656 3.931-6.65 6.925-8.982 2.994-2.333 6.379-3.499 10.154-3.499 4.327-.001 7.502 1.622 9.522 4.869zm-19.731 18.684c0 2.886.6 5.097 1.803 6.637 1.203 1.538 2.778 2.309 4.725 2.309 2.261 0 4.25-.903 5.97-2.706 1.718-1.804 3.024-4.082 3.913-6.835.89-2.754 1.335-5.417 1.335-7.99 0-1.275-.151-2.422-.45-3.445-.302-1.021-.746-1.918-1.336-2.686a5.814 5.814 0 0 0-2.126-1.751c-.832-.396-1.775-.595-2.833-.595-2.116 0-4.022.824-5.718 2.472-1.694 1.646-2.999 3.786-3.912 6.421a24.727 24.727 0 0 0-1.371 8.169z"/><path class="st7" d="M134.205 200.749c.191-.162.385-.318.582-.472-4.445 3.476-7.306 8.884-7.306 14.961v133.32c0 5.813 2.617 11.008 6.73 14.491l97.351-78.458-97.357-83.842zM379.288 200.268c.201.156.398.316.592.481l-97.357 83.842 97.353 78.458c4.112-3.483 6.729-8.678 6.729-14.491v-133.32c-.001-6.082-2.866-11.494-7.317-14.97z"/><path class="st8" d="M379.828 200.707c-.112-.094-.227-.186-.342-.278l-.051-.04c.149.119.295.241.44.364l.003-.002-.05-.044z"/><path class="st4" d="M377.171 364.97zM374.25 366.357c-.177.066-.357.127-.536.188.179-.061.359-.122.536-.188zM379.236 363.575zM373.408 366.648c-.159.051-.319.097-.479.144.16-.046.32-.093.479-.144zM377.867 364.542zM369.835 367.418c-.126.015-.252.031-.379.043.127-.012.252-.028.379-.043zM372.546 366.901zM368.857 367.507c-.105.007-.209.016-.315.022.105-.006.209-.015.315-.022zM371.666 367.114zM370.763 367.287zM378.559 364.076zM145.234 367.507c.103.007.206.016.31.021-.105-.005-.207-.014-.31-.021zM136.231 364.55zM137.594 365.349zM134.855 363.58zM135.535 364.082zM139.839 366.359c.171.064.345.122.518.181-.173-.059-.347-.117-.518-.181zM136.933 364.98zM143.326 367.288c.134.022.268.045.404.064-.136-.02-.27-.042-.404-.064zM144.255 367.419c.125.014.249.03.375.042-.127-.012-.25-.028-.375-.042zM140.681 366.65c.155.049.312.095.468.141-.156-.046-.313-.092-.468-.141zM142.423 367.115zM141.543 366.902z"/><g><path class="st8" d="M377.225 364.939a19.091 19.091 0 0 1 0 0z"/></g><path d="m268.41 273.216 111.47 89.837a18.906 18.906 0 0 1-12.265 4.498H146.471a18.909 18.909 0 0 1-12.266-4.498l111.469-89.837a17.421 17.421 0 0 1 22.736 0z" style="fill:#6857e5"/><path class="st3" d="m99.497 242.738 1.416.355-1.416.355a23.15 23.15 0 0 0-16.833 16.835l-.356 1.413-.355-1.413a23.154 23.154 0 0 0-16.838-16.835l-1.411-.355 1.411-.355a23.156 23.156 0 0 0 16.838-16.833l.355-1.413.356 1.413a23.151 23.151 0 0 0 16.833 16.833z"/><path d="m313.127 412.242 1.832.457-1.832.457a29.943 29.943 0 0 0-21.758 21.759l-.459 1.828-.455-1.828a29.941 29.941 0 0 0-21.764-21.759l-1.824-.457 1.824-.457a29.95 29.95 0 0 0 21.764-21.759l.455-1.83.459 1.83a29.951 29.951 0 0 0 21.758 21.759z" style="fill:#5d8ef9"/></svg>